<svg width="482" height="423" viewBox="0 0 482 423" fill="none" xmlns="http://www.w3.org/2000/svg">
<rect x="31" y="14" width="420" height="377" fill="#3A4158"/>
<path d="M0 211.333V378.667C0 402.967 19.6995 422.667 44 422.667H240.667H437.333C461.634 422.667 481.333 402.967 481.333 378.667V211.333V44C481.333 19.6994 461.634 0 437.333 0H240.667H44C19.6995 0 0 19.6995 0 44V211.333ZM265.6 33.2C277.6 36.2667 288.4 41.4667 299.333 49.6C306.133 54.6667 308.8 55.7333 317.733 57.0667C339.333 60.4 356.4 69.6 372 86.2667C386.533 101.867 394.533 118.667 396.8 138.8C397.6 146 398.533 148.133 403.467 154.267C412.533 165.333 419.467 181.333 421.467 195.333C424.8 220 420.133 243.333 408.267 261.467C404.667 266.933 400.8 272.133 399.733 273.067C398.4 274.133 397.2 278.133 396.667 283.067C394.133 304.4 385.333 322.8 370 338C353.6 354.267 337.333 362.8 317.067 365.6C307.867 366.933 305.067 367.867 300.667 371.467C292.8 377.867 276.533 386.133 266.667 388.8C253.333 392.533 227.733 392.133 214.667 388.133C202.933 384.533 192.4 379.067 183.733 371.867C178.267 367.333 176.133 366.4 167.733 365.333C146.8 362.667 129.6 354 114 338.133C97.6 321.467 89.2 304.667 87.2 284.667C86.4 276.4 85.6 274.667 80.5333 268.4C59.8667 243.067 55.3333 201.733 69.8667 171.333C72.2667 166.267 76.9333 158.4 80.2667 154C85.3333 147.333 86.5333 144.667 87.2 138C88.4 127.867 92.1333 115.6 96.8 106.4C104.667 90.6667 122.667 73.3333 139.733 64.6667C147.867 60.6667 164.933 56 171.467 56C174.667 56 178.267 54.2667 184.4 49.4667C201.6 36.5333 218.8 30.8 241.467 30.8C251.2 30.6667 258.667 31.4667 265.6 33.2Z" fill="white"/>
<path d="M220.8 50.1544C185.067 59.7544 160.8 93.8878 163.733 130.554C164.267 136.154 165.467 143.354 166.4 146.688L168.267 152.688L169.2 143.354C170.667 130.154 172.267 124.688 177.6 114.421C182.933 104.154 194.533 91.8878 204.933 85.7544C212.667 81.0878 230 76.0211 238.267 76.0211C241.867 76.0211 245.333 74.8211 249.067 72.1544C256.8 66.9544 264 63.3544 273.067 60.5544L280.8 58.1544L274.933 55.2211C261.2 48.1544 236.667 45.8878 220.8 50.1544Z" fill="white"/>
<path d="M282.133 75.4878C262.267 80.8211 245.2 94.1544 234.533 112.688L230.8 119.354L238 112.954C264.533 89.2211 303.867 88.5544 331.733 111.221C336.667 115.221 340.8 117.354 344.667 118.021C351.733 119.221 362 122.688 370 126.554C373.2 128.021 376 129.088 376.4 128.821C376.667 128.421 375.867 125.354 374.533 121.888C366.4 100.421 344.8 81.2211 322.533 75.4878C312.267 72.8211 291.867 72.8211 282.133 75.4878Z" fill="white"/>
<path d="M145.867 80.9544C132 87.7544 117.333 102.554 110.933 116.021C100.533 138.021 100.533 162.154 110.933 184.021C116.4 195.488 132 212.288 141.867 217.221L147.6 220.288L141.467 212.688C119.2 185.354 119.333 145.354 142 119.754C145.2 116.021 147.333 112.288 147.333 110.288C147.333 105.754 152.267 90.0211 156.133 82.2877C160.133 74.4211 159.067 74.2877 145.867 80.9544Z" fill="white"/>
<path d="M215.333 99.8878C184.267 116.021 177.2 159.221 201.467 184.554C207.067 190.421 217.733 198.021 218.8 196.954C219.067 196.688 217.6 192.554 215.467 187.888C203.733 162.021 205.6 128.154 220 103.621C222.533 99.4878 224.133 96.0211 223.6 96.0211C223.067 96.1544 219.333 97.8878 215.333 99.8878Z" fill="white"/>
<path d="M271.333 113.888C252.933 119.088 238.933 132.954 233.2 151.888C230.933 159.621 230.8 173.488 233.067 181.088L234.8 186.954L238.533 177.488C247.467 154.688 265.333 135.754 287.733 125.354C292.267 123.221 299.2 120.554 303.2 119.621C311.2 117.621 311.067 117.221 300.8 114.154C292.267 111.621 279.867 111.621 271.333 113.888Z" fill="white"/>
<path d="M310.4 135.354C297.733 138.154 297.067 139.354 307.6 139.621C332.533 140.288 355.2 154.688 367.867 177.888C372.933 187.088 373.733 189.888 375.2 203.354C376.133 211.088 377.333 214.154 381.733 221.221C384.8 225.888 388.533 232.954 390 237.221C395.067 251.088 394.667 250.821 398.4 242.554C417.867 199.354 390.4 145.221 344 135.354C332.667 132.954 321.467 132.954 310.4 135.354Z" fill="white"/>
<path d="M144 152.688C141.067 163.354 141.867 175.888 146 187.088C149.734 196.954 161.6 210.021 171.467 214.954C179.467 218.954 194.4 221.888 201.467 220.688C204 220.288 208.134 219.754 210.667 219.354C213.2 218.954 215.334 218.154 215.334 217.621C215.334 217.088 211.867 215.354 207.734 214.021C181.467 205.088 154.134 174.688 149.334 148.954C148.8 146.288 147.867 144.021 147.334 144.021C146.8 144.021 145.2 147.888 144 152.688Z" fill="white"/>
<path d="M293.733 157.354C285.2 158.821 273.733 164.821 267.067 171.221C262 176.154 253.467 188.021 254.533 188.954C254.667 189.221 258.133 188.021 262.133 186.154C277.333 179.488 284.4 178.154 302.667 178.154C317.867 178.288 321.333 178.688 330.667 181.888C336.533 183.888 344.533 187.354 348.4 189.488C356.933 194.554 357.2 192.954 349.867 181.621C337.467 162.688 315.733 153.354 293.733 157.354Z" fill="white"/>
<path d="M84.8 177.488C80.2667 187.488 78 198.554 78 210.688C78 233.754 84.4 249.221 100.8 265.621C112 276.954 124.267 284.021 137.867 286.821C147.333 288.821 171.6 287.621 178.667 284.954L184 282.821H178C168.667 282.554 154.933 279.221 146.4 275.088C142.133 273.088 134.4 267.221 128.933 262.154C116.267 250.154 109.333 236.688 107.067 220.021C106 211.088 104.667 207.221 101.333 202.021C95.3333 192.688 94.1333 190.154 90.6667 180.154L87.6 171.354L84.8 177.488Z" fill="white"/>
<path d="M270 203.354C265.867 204.821 265.6 205.221 268 206.021C269.467 206.688 274.133 208.421 278.267 210.154C304 220.288 327.067 247.088 332.8 273.488L334.4 280.688L336.267 276.154C348 248.021 332.133 212.954 303.467 204.021C293.733 200.954 277.2 200.554 270 203.354Z" fill="white"/>
<path d="M339.733 208.154C354 224.554 360 244.688 356.8 266.154C354.933 278.821 348.4 293.354 341.067 301.621C336.667 306.288 335.333 309.354 332.933 319.088C331.467 325.488 328.267 334.421 326.133 338.954L322.133 346.954L325.733 346.154C341.467 342.421 361.467 325.621 370.4 308.421C382 286.154 382 257.488 370.4 235.621C366 227.221 347.6 208.554 339.333 204.154L333.467 200.954L339.733 208.154Z" fill="white"/>
<path d="M265.333 230.821C277.867 255.488 277.333 291.488 263.867 315.754C261.333 320.421 259.467 324.554 259.867 324.954C261.2 326.421 272.4 319.221 278.933 312.554C297.6 293.888 300.667 265.221 286.133 244.021C281.6 237.354 266.267 224.021 263.2 224.021C262.533 224.021 263.467 227.088 265.333 230.821Z" fill="white"/>
<path d="M127.333 230.554C127.333 232.954 133.067 242.021 137.867 247.088C156 266.554 181.467 270.688 205.734 258.154C211.334 255.221 223.067 243.221 226.134 237.088L228.667 232.154L221.467 235.488C217.6 237.221 209.334 240.021 203.2 241.488C181.6 247.088 152.667 243.354 134.533 232.688C128.267 229.088 127.333 228.688 127.333 230.554Z" fill="white"/>
<path d="M245.467 239.354C244.267 245.621 236.533 260.154 229.733 269.088C218.667 283.354 195.2 299.088 180.667 302.021C178.133 302.554 175.067 303.488 174 304.021C171.333 305.488 176.533 307.488 187.867 309.354C225.467 315.354 256.533 283.621 250 245.754C248.133 234.688 246.667 232.688 245.467 239.354Z" fill="white"/>
<path d="M312.667 276.154C312.667 285.088 309.867 296.421 305.067 306.421C300.8 315.621 284.133 332.554 274.533 337.621C266.267 342.154 254.133 345.354 246 345.354C241.333 345.354 238.667 346.288 234.4 349.354C227.467 354.421 214.933 360.688 207.333 362.688C201.467 364.288 201.467 364.288 204.667 366.154C206.533 367.088 211.867 369.354 216.667 370.954C229.2 375.354 253.467 375.354 266.4 370.954C289.733 362.821 309.6 341.354 316 317.354C318.533 308.021 318.533 286.821 316.133 277.488C313.467 267.888 312.667 267.621 312.667 276.154Z" fill="white"/>
<path d="M107.2 298.688C111.467 309.754 116.667 317.621 126 326.821C155.2 355.621 202 356.554 232.133 328.954C238.8 322.821 250 307.888 250 305.088C250 304.421 246.933 306.554 243.067 310.021C217.733 332.821 176.4 333.088 151.067 310.821C146.267 306.554 143.2 304.954 137.467 303.888C128.133 302.154 116.267 298.154 110.4 294.688C107.867 293.221 105.6 292.021 105.2 292.021C104.933 292.021 105.867 294.954 107.2 298.688Z" fill="white"/>
</svg>
