<svg width="482" height="423" viewBox="0 0 482 423" fill="none" xmlns="http://www.w3.org/2000/svg">
<path d="M0 211.333V378.667C0 402.967 19.6995 422.667 44 422.667H240.667H437.333C461.634 422.667 481.333 402.967 481.333 378.667V211.333V44C481.333 19.6994 461.634 -1.69873e-06 437.333 -1.69873e-06H240.667H44C19.6995 -1.69873e-06 0 19.6995 0 44V211.333ZM265.6 33.2C277.6 36.2667 288.4 41.4667 299.333 49.6C306.133 54.6667 308.8 55.7333 317.733 57.0667C339.333 60.4 356.4 69.6 372 86.2667C386.533 101.867 394.533 118.667 396.8 138.8C397.6 146 398.533 148.133 403.467 154.267C412.533 165.333 419.467 181.333 421.467 195.333C424.8 220 420.133 243.333 408.267 261.467C404.667 266.933 400.8 272.133 399.733 273.067C398.4 274.133 397.2 278.133 396.667 283.067C394.133 304.4 385.333 322.8 370 338C353.6 354.267 337.333 362.8 317.067 365.6C307.867 366.933 305.067 367.867 300.667 371.467C292.8 377.867 276.533 386.133 266.667 388.8C253.333 392.533 227.733 392.133 214.667 388.133C202.933 384.533 192.4 379.067 183.733 371.867C178.267 367.333 176.133 366.4 167.733 365.333C146.8 362.667 129.6 354 114 338.133C97.6 321.467 89.2 304.667 87.2 284.667C86.4 276.4 85.6 274.667 80.5333 268.4C59.8667 243.067 55.3333 201.733 69.8667 171.333C72.2667 166.267 76.9333 158.4 80.2667 154C85.3333 147.333 86.5333 144.667 87.2 138C88.4 127.867 92.1333 115.6 96.8 106.4C104.667 90.6667 122.667 73.3333 139.733 64.6667C147.867 60.6667 164.933 56 171.467 56C174.667 56 178.267 54.2667 184.4 49.4667C201.6 36.5333 218.8 30.8 241.467 30.8C251.2 30.6667 258.667 31.4667 265.6 33.2Z" fill="#3A4158"/>
<path d="M221.467 50.1333C185.733 59.7333 161.467 93.8667 164.4 130.533C164.933 136.133 166.133 143.333 167.067 146.667L168.933 152.667L169.867 143.333C171.333 130.133 172.933 124.667 178.267 114.4C183.6 104.133 195.2 91.8667 205.6 85.7333C213.333 81.0667 230.667 76 238.933 76C242.533 76 246 74.8 249.733 72.1333C257.467 66.9333 264.667 63.3333 273.733 60.5333L281.467 58.1333L275.6 55.2C261.867 48.1333 237.333 45.8667 221.467 50.1333Z" fill="#3A4158"/>
<path d="M282.8 75.4666C262.933 80.8 245.867 94.1333 235.2 112.667L231.467 119.333L238.667 112.933C265.2 89.2 304.533 88.5333 332.4 111.2C337.333 115.2 341.467 117.333 345.333 118C352.4 119.2 362.667 122.667 370.667 126.533C373.867 128 376.667 129.067 377.067 128.8C377.333 128.4 376.533 125.333 375.2 121.867C367.067 100.4 345.467 81.2 323.2 75.4666C312.933 72.8 292.533 72.8 282.8 75.4666Z" fill="#3A4158"/>
<path d="M146.533 80.9333C132.667 87.7333 118 102.533 111.6 116C101.2 138 101.2 162.133 111.6 184C117.067 195.467 132.667 212.267 142.533 217.2L148.267 220.267L142.133 212.667C119.867 185.333 120 145.333 142.667 119.733C145.867 116 148 112.267 148 110.267C148 105.733 152.933 90 156.8 82.2667C160.8 74.4 159.733 74.2667 146.533 80.9333Z" fill="#3A4158"/>
<path d="M216 99.8667C184.933 116 177.867 159.2 202.133 184.533C207.733 190.4 218.4 198 219.467 196.933C219.733 196.667 218.267 192.533 216.133 187.867C204.4 162 206.267 128.133 220.667 103.6C223.2 99.4667 224.8 96 224.267 96C223.733 96.1333 220 97.8667 216 99.8667Z" fill="#3A4158"/>
<path d="M272 113.867C253.6 119.067 239.6 132.933 233.867 151.867C231.6 159.6 231.467 173.467 233.733 181.067L235.467 186.933L239.2 177.467C248.133 154.667 266 135.733 288.4 125.333C292.933 123.2 299.867 120.533 303.867 119.6C311.867 117.6 311.733 117.2 301.467 114.133C292.933 111.6 280.533 111.6 272 113.867Z" fill="#3A4158"/>
<path d="M311.067 135.333C298.4 138.133 297.733 139.333 308.267 139.6C333.2 140.267 355.867 154.667 368.533 177.867C373.6 187.067 374.4 189.867 375.867 203.333C376.8 211.067 378 214.133 382.4 221.2C385.467 225.867 389.2 232.933 390.667 237.2C395.733 251.067 395.333 250.8 399.067 242.533C418.533 199.333 391.067 145.2 344.667 135.333C333.333 132.933 322.133 132.933 311.067 135.333Z" fill="#3A4158"/>
<path d="M144.667 152.667C141.733 163.333 142.533 175.867 146.667 187.067C150.4 196.933 162.267 210 172.133 214.933C180.133 218.933 195.067 221.867 202.133 220.667C204.667 220.267 208.8 219.733 211.333 219.333C213.867 218.933 216 218.133 216 217.6C216 217.067 212.533 215.333 208.4 214C182.133 205.067 154.8 174.667 150 148.933C149.467 146.267 148.533 144 148 144C147.467 144 145.867 147.867 144.667 152.667Z" fill="#3A4158"/>
<path d="M294.4 157.333C285.867 158.8 274.4 164.8 267.733 171.2C262.667 176.133 254.133 188 255.2 188.933C255.333 189.2 258.8 188 262.8 186.133C278 179.467 285.067 178.133 303.333 178.133C318.533 178.267 322 178.667 331.333 181.867C337.2 183.867 345.2 187.333 349.067 189.467C357.6 194.533 357.867 192.933 350.533 181.6C338.133 162.667 316.4 153.333 294.4 157.333Z" fill="#3A4158"/>
<path d="M85.4667 177.467C80.9334 187.467 78.6667 198.533 78.6667 210.667C78.6667 233.733 85.0667 249.2 101.467 265.6C112.667 276.933 124.933 284 138.533 286.8C148 288.8 172.267 287.6 179.333 284.933L184.667 282.8H178.667C169.333 282.533 155.6 279.2 147.067 275.067C142.8 273.067 135.067 267.2 129.6 262.133C116.933 250.133 110 236.667 107.733 220C106.667 211.067 105.333 207.2 102 202C96 192.667 94.8 190.133 91.3334 180.133L88.2667 171.333L85.4667 177.467Z" fill="#3A4158"/>
<path d="M270.667 203.333C266.533 204.8 266.267 205.2 268.667 206C270.133 206.667 274.8 208.4 278.933 210.133C304.667 220.267 327.733 247.067 333.467 273.467L335.067 280.667L336.933 276.133C348.667 248 332.8 212.933 304.133 204C294.4 200.933 277.867 200.533 270.667 203.333Z" fill="#3A4158"/>
<path d="M340.4 208.133C354.667 224.533 360.667 244.667 357.467 266.133C355.6 278.8 349.067 293.333 341.733 301.6C337.333 306.267 336 309.333 333.6 319.067C332.133 325.467 328.933 334.4 326.8 338.933L322.8 346.933L326.4 346.133C342.133 342.4 362.133 325.6 371.067 308.4C382.667 286.133 382.667 257.467 371.067 235.6C366.667 227.2 348.267 208.533 340 204.133L334.133 200.933L340.4 208.133Z" fill="#3A4158"/>
<path d="M266 230.8C278.533 255.467 278 291.467 264.533 315.733C262 320.4 260.133 324.533 260.533 324.933C261.867 326.4 273.067 319.2 279.6 312.533C298.267 293.867 301.333 265.2 286.8 244C282.267 237.333 266.933 224 263.867 224C263.2 224 264.133 227.067 266 230.8Z" fill="#3A4158"/>
<path d="M128 230.533C128 232.933 133.733 242 138.533 247.067C156.667 266.533 182.133 270.667 206.4 258.133C212 255.2 223.733 243.2 226.8 237.067L229.333 232.133L222.133 235.467C218.267 237.2 210 240 203.867 241.467C182.267 247.067 153.333 243.333 135.2 232.667C128.933 229.067 128 228.667 128 230.533Z" fill="#3A4158"/>
<path d="M246.133 239.333C244.933 245.6 237.2 260.133 230.4 269.067C219.333 283.333 195.867 299.067 181.333 302C178.8 302.533 175.733 303.467 174.667 304C172 305.467 177.2 307.467 188.533 309.333C226.133 315.333 257.2 283.6 250.667 245.733C248.8 234.667 247.333 232.667 246.133 239.333Z" fill="#3A4158"/>
<path d="M313.333 276.133C313.333 285.067 310.533 296.4 305.733 306.4C301.467 315.6 284.8 332.533 275.2 337.6C266.933 342.133 254.8 345.333 246.667 345.333C242 345.333 239.333 346.267 235.067 349.333C228.133 354.4 215.6 360.667 208 362.667C202.133 364.267 202.133 364.267 205.333 366.133C207.2 367.067 212.533 369.333 217.333 370.933C229.867 375.333 254.133 375.333 267.067 370.933C290.4 362.8 310.267 341.333 316.667 317.333C319.2 308 319.2 286.8 316.8 277.467C314.133 267.867 313.333 267.6 313.333 276.133Z" fill="#3A4158"/>
<path d="M107.867 298.667C112.133 309.733 117.333 317.6 126.667 326.8C155.867 355.6 202.667 356.533 232.8 328.933C239.467 322.8 250.667 307.867 250.667 305.067C250.667 304.4 247.6 306.533 243.733 310C218.4 332.8 177.067 333.067 151.733 310.8C146.933 306.533 143.867 304.933 138.133 303.867C128.8 302.133 116.933 298.133 111.067 294.667C108.533 293.2 106.267 292 105.867 292C105.6 292 106.533 294.933 107.867 298.667Z" fill="#3A4158"/>
</svg>
