<?xml version="1.0" encoding="utf-8"?>
<!-- Uploaded to: SVG Repo, www.svgrepo.com, Generator: SVG Repo Mixer Tools -->
<svg width="800px" height="800px" viewBox="0 0 1024 1024" class="icon"  version="1.1" xmlns="http://www.w3.org/2000/svg"><path d="M826.660571 190.683429h-70.290285c-15.798857 0-27.867429-11.410286-27.867429-32.182858 0-20.772571 12.068571-33.28 27.867429-33.28h83.821714c27.867429 0 50.614857 22.674286 50.688 50.688V918.674286c0 27.867429-22.674286 50.614857-50.614857 50.614857H110.665143a50.688 50.688 0 0 1-50.688-50.614857V175.908571c0-28.013714 22.674286-50.688 50.688-50.688H203.337143c15.798857 0 29.915429 13.458286 29.915428 33.28s-14.116571 32.109714-29.915428 32.109715H126.390857v712.850285h697.344l2.925714-712.777142zM697.563429 396.434286H253.366857c-14.262857 0-25.746286-14.921143-25.746286-33.353143s11.483429-33.426286 25.746286-33.426286h444.196572c14.116571 0 25.673143 14.994286 25.673142 33.426286 0 18.358857-11.556571 33.353143-25.6 33.353143z m0 169.984H253.366857c-14.262857 0-25.746286-14.994286-25.746286-33.426286s11.483429-33.353143 25.746286-33.353143h444.196572c14.116571 0 25.673143 14.994286 25.673142 33.353143 0 18.432-11.556571 33.426286-25.6 33.426286z m0 169.910857H253.366857c-14.262857 0-25.746286-14.921143-25.746286-33.353143s11.483429-33.426286 25.746286-33.426286h444.196572c14.116571 0 25.673143 14.994286 25.673142 33.426286 0 18.358857-11.556571 33.353143-25.6 33.353143zM648.265143 124.342857c16.310857 0 32.768 10.459429 32.768 33.792 0 23.405714-15.213714 31.890286-32.768 31.890286H297.472c-16.384 0-27.648-15.36-27.648-31.890286 0-15.213714 13.531429-33.792 27.648-33.792h63.341714v-5.339428c0-59.465143 55.808-100.937143 114.249143-100.937143 58.368 0 109.860571 44.909714 109.860572 100.937143a45.348571 45.348571 0 0 1-0.365715 5.339428h63.707429z m-242.102857 0.512h127.195428C529.993143 84.845714 509.44 64.804571 471.771429 64.804571c-37.668571 0-59.538286 20.041143-65.682286 60.050286z" fill="#000000" /></svg>