<?xml version="1.0" encoding="iso-8859-1"?>
<!-- Uploaded to: SVG Repo, www.svgrepo.com, Generator: SVG Repo Mixer Tools -->
<!DOCTYPE svg PUBLIC "-//W3C//DTD SVG 1.1//EN" "http://www.w3.org/Graphics/SVG/1.1/DTD/svg11.dtd">
<svg fill="#000000" height="800px" width="800px" version="1.1" id="Capa_1" xmlns="http://www.w3.org/2000/svg" xmlns:xlink="http://www.w3.org/1999/xlink" 
	 viewBox="0 0 330 330" xml:space="preserve">
<g>
	<path d="M234.998,204.981c-26.079,0-48.314,16.73-56.568,40.019H151.57c-8.254-23.289-30.49-40.019-56.571-40.019
		c-33.088,0-60.007,26.922-60.007,60.014c0,33.087,26.919,60.006,60.007,60.006c29.679,0,54.379-21.661,59.158-50h21.686
		c4.778,28.339,29.479,50,59.155,50c33.09,0,60.011-26.918,60.011-60.006C295.009,231.902,268.088,204.981,234.998,204.981z
		 M94.999,295c-16.546,0-30.007-13.46-30.007-30.006c0-16.55,13.461-30.014,30.007-30.014c16.547,0,30.009,13.464,30.009,30.014
		C125.008,281.54,111.546,295,94.999,295z M234.998,295c-16.545,0-30.006-13.46-30.006-30.006c0-16.55,13.461-30.014,30.006-30.014
		c16.548,0,30.011,13.464,30.011,30.014C265.009,281.54,251.546,295,234.998,295z"/>
	<path d="M315,145h-39.145l-9.149-47.986c-0.004-0.019-0.007-0.039-0.011-0.058l-11.042-57.908
		c-1.061-5.563-5.163-10.054-10.607-11.611L168.667,5.579c-2.713-0.777-5.59-0.772-8.301,0.013L84.908,27.45
		c-5.422,1.571-9.503,6.053-10.561,11.598l-11.04,57.9c-0.006,0.026-0.01,0.053-0.016,0.079L54.145,145H15c-8.284,0-15,6.716-15,15
		c0,8.284,6.716,15,15,15h51.555h196.891H315c8.284,0,15-6.716,15-15C330,151.716,323.284,145,315,145z M164.565,35.61
		l63.349,18.128L233.875,85H96.126l5.967-31.295L164.565,35.61z M84.686,145l5.72-30h149.19l5.72,30H84.686z"/>
</g>
</svg>