<?xml version="1.0" encoding="utf-8"?><!-- Uploaded to: SVG Repo, www.svgrepo.com, Generator: SVG Repo Mixer Tools -->
<svg version="1.1" id="Uploaded to svgrepo.com" xmlns="http://www.w3.org/2000/svg" xmlns:xlink="http://www.w3.org/1999/xlink" 
	 width="800px" height="800px" viewBox="0 0 32 32" xml:space="preserve">
<style type="text/css">
	.feather_een{fill:#0B1719;}
</style>
<path class="feather_een" d="M9,5L9,5c0.195,0.195,0.195,0.512,0,0.707L7.354,7.353c-0.195,0.195-0.512,0.195-0.707,0L6,6.707
	C5.805,6.512,5.805,6.195,6,6l0,0c0.195-0.195,0.512-0.195,0.707,0L7,6.293L8.293,5C8.488,4.805,8.805,4.805,9,5z M7,15.293
	L6.707,15C6.512,14.805,6.195,14.805,6,15h0c-0.195,0.195-0.195,0.512,0,0.707l0.646,0.646c0.195,0.195,0.512,0.195,0.707,0
	L9,14.707C9.195,14.512,9.195,14.195,9,14l0,0c-0.195-0.195-0.512-0.195-0.707,0L7,15.293z M7,19.293L6.707,19
	C6.512,18.805,6.195,18.805,6,19h0c-0.195,0.195-0.195,0.512,0,0.707l0.646,0.646c0.195,0.195,0.512,0.195,0.707,0L9,18.707
	C9.195,18.512,9.195,18.195,9,18l0,0c-0.195-0.195-0.512-0.195-0.707,0L7,19.293z M8.293,9L7.5,9.793L6.707,9
	C6.512,8.805,6.195,8.805,6,9h0C5.805,9.195,5.805,9.512,6,9.707L6.793,10.5L6,11.293C5.805,11.488,5.805,11.805,6,12h0
	c0.195,0.195,0.512,0.195,0.707,0L7.5,11.207L8.293,12C8.488,12.195,8.805,12.195,9,12l0,0c0.195-0.195,0.195-0.512,0-0.707
	L8.207,10.5L9,9.707C9.195,9.512,9.195,9.195,9,9l0,0C8.805,8.805,8.488,8.805,8.293,9z M29,11v16c0,1.657-1.343,3-3,3H15
	c-1.657,0-3-1.343-3-3v-3H6c-1.657,0-3-1.343-3-3V5c0-1.657,1.343-3,3-3h11c1.657,0,3,1.343,3,3v3h6C27.657,8,29,9.343,29,11z
	 M12,23V11c0-1.657,1.343-3,3-3h4V5c0-1.105-0.895-2-2-2H6C4.895,3,4,3.895,4,5v16c0,1.105,0.895,2,2,2H12z M26,9H15
	c-1.105,0-2,0.895-2,2v16c0,1.105,0.895,2,2,2h11c1.105,0,2-0.895,2-2V11C28,9.895,27.105,9,26,9z M18,11L18,11
	c-0.195-0.195-0.512-0.195-0.707,0L16,12.293L15.707,12c-0.195-0.195-0.512-0.195-0.707,0l0,0c-0.195,0.195-0.195,0.512,0,0.707
	l0.646,0.646c0.195,0.195,0.512,0.195,0.707,0L18,11.707C18.195,11.512,18.195,11.195,18,11z M18,20L18,20
	c-0.195-0.195-0.512-0.195-0.707,0L16,21.293L15.707,21c-0.195-0.195-0.512-0.195-0.707,0l0,0c-0.195,0.195-0.195,0.512,0,0.707
	l0.646,0.646c0.195,0.195,0.512,0.195,0.707,0L18,20.707C18.195,20.512,18.195,20.195,18,20z M18,24L18,24
	c-0.195-0.195-0.512-0.195-0.707,0L16,25.293L15.707,25c-0.195-0.195-0.512-0.195-0.707,0l0,0c-0.195,0.195-0.195,0.512,0,0.707
	l0.646,0.646c0.195,0.195,0.512,0.195,0.707,0L18,24.707C18.195,24.512,18.195,24.195,18,24z M15.707,18l0.793-0.793L17.293,18
	c0.195,0.195,0.512,0.195,0.707,0l0,0c0.195-0.195,0.195-0.512,0-0.707L17.207,16.5L18,15.707c0.195-0.195,0.195-0.512,0-0.707l0,0
	c-0.195-0.195-0.512-0.195-0.707,0L16.5,15.793L15.707,15c-0.195-0.195-0.512-0.195-0.707,0l0,0c-0.195,0.195-0.195,0.512,0,0.707
	l0.793,0.793L15,17.293c-0.195,0.195-0.195,0.512,0,0.707l0,0C15.195,18.195,15.512,18.195,15.707,18z"/>
</svg>