<?xml version="1.0" encoding="utf-8"?><!-- Uploaded to: SVG Repo, www.svgrepo.com, Generator: SVG Repo Mixer Tools -->
<svg width="800px" height="800px" viewBox="0 0 24 24" fill="none" xmlns="http://www.w3.org/2000/svg">
<path d="M17 9L17 4M17 9L14.5 7M17 9L19.5 7" stroke="#000000" stroke-width="2" stroke-linecap="round" stroke-linejoin="round"/>
<path d="M10.5861 19.1946C10.5203 18.9868 10.3274 18.8455 10.1094 18.8455H7.55474C7.33675 18.8455 7.14388 18.9868 7.07807 19.1946L6.65978 20.5154C6.59397 20.7233 6.4011 20.8645 6.18311 20.8645H4.72359C4.37391 20.8645 4.13223 20.5148 4.2559 20.1877L7.60741 11.3232C7.68095 11.1287 7.86717 11 8.0751 11H9.58987C9.7974 11 9.98336 11.1282 10.0572 11.3222L13.4308 20.1867C13.5553 20.5139 13.3136 20.8645 12.9635 20.8645H11.4811C11.2631 20.8645 11.0702 20.7233 11.0044 20.5154L10.5861 19.1946ZM7.79577 16.9252C7.75489 17.0541 7.85115 17.1856 7.98642 17.1856H9.66955C9.80482 17.1856 9.90108 17.0541 9.8602 16.9252L9.01863 14.2707C8.95964 14.0846 8.69633 14.0846 8.63734 14.2707L7.79577 16.9252Z" fill="#000000"/>
<path d="M18.1268 20.8645C18.0402 20.8645 17.9763 20.8529 17.9413 20.7736C17.8621 20.5943 17.6066 20.4922 17.4472 20.6064C17.0811 20.8688 16.6326 21 16.1016 21C15.3584 21 14.7409 20.7967 14.2491 20.3902C13.7628 19.9837 13.5196 19.4575 13.5196 18.8117C13.5196 18.0438 13.8147 17.4499 14.4048 17.0298C15.0005 16.6098 15.8557 16.3952 16.9705 16.3862H17.1754C17.4516 16.3862 17.6754 16.1623 17.6754 15.8862V15.7967C17.6754 15.467 17.6071 15.2344 17.4705 15.0989C17.3339 14.9634 17.1344 14.8957 16.8721 14.8957C16.4947 14.8957 16.2402 15.0146 16.1087 15.2523C15.9751 15.494 15.7794 15.7358 15.5032 15.7358H14.1835C13.9074 15.7358 13.6755 15.5083 13.7433 15.2406C13.8596 14.7814 14.1457 14.3887 14.6016 14.0623C15.2191 13.6197 15.9978 13.3984 16.9377 13.3984C17.9104 13.3984 18.6618 13.6084 19.1918 14.0285C19.7274 14.444 19.9951 15.0402 19.9951 15.8171V19.2656C20.0061 19.8979 19.9951 20.3651 19.9951 20.7493C19.9951 20.8129 19.9436 20.8645 19.88 20.8645H18.1268ZM16.618 19.4959C16.8748 19.4959 17.0934 19.453 17.2738 19.3672C17.389 19.3124 17.4853 19.251 17.5626 19.1833C17.6435 19.1124 17.6754 19.0042 17.6754 18.8966V18.0379C17.6754 17.7618 17.4516 17.5379 17.1754 17.5379H17.118C16.7246 17.5379 16.4131 17.6418 16.1836 17.8496C15.9595 18.0574 15.8475 18.3351 15.8475 18.6829C15.8475 19.2249 16.1043 19.4959 16.618 19.4959Z" fill="#000000"/>
</svg>