<?xml version="1.0" standalone="no"?>
<!DOCTYPE svg PUBLIC "-//W3C//DTD SVG 20010904//EN"
 "http://www.w3.org/TR/2001/REC-SVG-20010904/DTD/svg10.dtd">
<svg version="1.0" xmlns="http://www.w3.org/2000/svg"
 width="482.000000pt" height="423.000000pt" viewBox="0 0 482.000000 423.000000"
 preserveAspectRatio="xMidYMid meet">
<g transform="translate(0.000000,423.000000) scale(0.100000,-0.100000)"
fill="#FFFFFF" stroke="none">
<path d="M2233 3906 c-145 -28 -244 -71 -384 -169 -80 -55 -93 -60 -174 -73
-213 -34 -376 -118 -532 -273 -154 -153 -227 -297 -268 -529 -16 -91 -20 -102
-80 -187 -59 -82 -119 -206 -145 -295 -33 -112 -39 -332 -12 -460 24 -115 69
-228 125 -311 98 -145 97 -142 112 -239 37 -230 112 -369 297 -546 137 -132
289 -209 470 -239 126 -21 137 -26 215 -86 78 -60 219 -130 314 -156 50 -14
103 -18 249 -18 166 0 193 2 260 23 94 30 212 89 311 157 66 45 88 55 151 65
238 38 399 121 564 292 146 150 220 301 258 525 15 85 19 96 71 165 68 90 127
207 157 313 20 69 23 103 23 255 0 152 -3 185 -23 253 -28 99 -91 226 -148
299 -53 69 -70 105 -79 178 -24 196 -107 367 -252 521 -151 160 -326 253 -543
289 -85 14 -110 25 -196 87 -74 52 -226 125 -309 148 -83 23 -336 29 -432 11z
m354 -175 c86 -18 213 -66 213 -80 0 -4 -33 -18 -72 -30 -79 -25 -150 -59
-240 -114 -45 -27 -72 -35 -127 -41 -39 -3 -107 -18 -153 -32 -141 -44 -194
-77 -299 -183 -78 -79 -103 -112 -137 -181 -47 -96 -68 -169 -80 -285 -8 -76
-9 -79 -21 -50 -7 16 -19 77 -28 134 -35 236 39 466 204 642 192 203 449 280
740 220z m624 -252 c136 -27 319 -146 421 -273 73 -91 157 -266 127 -266 -5 0
-39 14 -76 30 -73 33 -214 80 -241 80 -24 0 -81 32 -144 80 -215 164 -507 196
-743 81 -85 -42 -113 -60 -196 -131 l-52 -44 18 34 c111 216 343 389 562 419
79 11 247 6 324 -10z m-1631 -23 c0 -7 -13 -42 -29 -77 -30 -67 -64 -177 -76
-244 -4 -27 -27 -67 -67 -120 -72 -95 -98 -146 -129 -245 -30 -97 -33 -280 -6
-380 25 -94 86 -215 146 -289 28 -35 51 -66 51 -68 0 -2 -24 8 -52 24 -67 35
-232 200 -277 276 -135 229 -146 504 -29 744 65 132 217 280 361 352 89 44
107 48 107 27z m652 -203 c-4 -10 -29 -61 -55 -113 -61 -123 -87 -226 -94
-370 -7 -147 14 -269 68 -404 21 -54 37 -101 34 -104 -18 -19 -171 109 -223
187 -58 88 -83 161 -89 263 -7 110 8 192 54 287 44 93 131 182 228 233 80 43
87 45 77 21z m798 -170 c30 -10 55 -22 55 -26 0 -5 -38 -21 -85 -36 -160 -52
-262 -113 -384 -230 -95 -92 -182 -219 -227 -335 -19 -47 -37 -86 -40 -86 -10
0 -28 72 -35 140 -22 220 101 443 300 540 45 22 101 45 126 50 66 13 226 4
290 -17z m440 -214 c259 -65 472 -282 552 -564 29 -103 31 -287 4 -383 -23
-87 -63 -175 -77 -170 -6 2 -26 40 -44 85 -17 45 -55 122 -82 170 -62 109 -60
104 -78 232 -17 122 -52 203 -136 314 -122 161 -335 275 -518 278 -31 0 -65 4
-76 8 -16 7 -9 12 37 25 130 39 276 40 418 5z m-1970 -154 c19 -81 94 -224
166 -313 112 -140 245 -242 396 -303 40 -17 77 -34 82 -39 15 -15 -38 -29
-128 -36 -96 -8 -207 12 -296 54 -71 33 -205 166 -243 242 -53 107 -68 239
-42 362 26 124 43 132 65 33z m1645 -60 c151 -32 287 -128 368 -262 58 -96 52
-101 -54 -48 -38 20 -111 50 -162 67 -89 31 -97 32 -267 32 -195 0 -238 -8
-392 -70 -49 -20 -91 -34 -93 -32 -8 8 53 97 103 150 131 141 314 201 497 163z
m-2231 -242 c15 -45 50 -119 77 -164 50 -82 61 -116 95 -282 19 -95 76 -213
140 -287 142 -167 309 -254 534 -276 72 -7 72 -7 41 -20 -88 -37 -337 -44
-456 -14 -228 58 -458 277 -531 504 -47 145 -44 368 6 510 32 89 51 129 59
120 5 -5 21 -46 35 -91z m2108 -219 c161 -48 282 -166 348 -339 42 -111 38
-285 -9 -390 l-17 -40 -18 70 c-37 148 -109 279 -221 403 -98 107 -217 188
-367 247 -38 15 -68 31 -68 36 0 8 48 24 100 33 45 8 197 -4 252 -20z m472
-80 c223 -192 305 -373 294 -643 -9 -193 -70 -344 -198 -483 -100 -110 -241
-202 -337 -223 l-32 -6 34 73 c18 40 50 129 70 198 23 79 46 137 63 159 61 75
76 100 113 177 21 44 45 110 54 145 19 83 19 257 0 334 -23 91 -97 232 -160
303 -30 35 -55 66 -55 68 0 13 89 -47 154 -102z m-768 -186 c160 -129 223
-251 224 -433 0 -159 -51 -279 -169 -395 -74 -73 -163 -132 -177 -117 -4 4 13
51 39 105 77 162 92 229 92 422 0 183 -15 261 -75 394 -48 108 -42 111 66 24z
m-1251 -80 c111 -40 199 -53 345 -52 114 0 150 4 234 27 55 15 126 39 158 54
32 14 61 23 64 20 23 -23 -153 -215 -237 -257 -80 -41 -164 -60 -261 -60 -150
0 -270 52 -383 165 -70 70 -132 166 -120 185 4 7 30 -2 68 -23 34 -19 94 -46
132 -59z m1017 -20 c7 -24 12 -92 13 -153 0 -89 -5 -123 -23 -177 -76 -222
-279 -368 -508 -368 -85 0 -213 25 -233 45 -12 12 -5 16 45 30 199 55 415 202
525 358 57 81 120 201 139 265 7 23 17 42 21 42 5 0 14 -19 21 -42z m679 -418
c12 -74 11 -230 -2 -309 -39 -242 -268 -504 -509 -583 -81 -26 -318 -37 -413
-18 -80 15 -219 69 -215 82 2 6 33 21 68 33 75 25 162 68 240 119 55 36 69 40
174 51 79 8 195 48 262 90 71 46 210 188 252 258 50 83 83 189 93 297 4 52 9
97 9 100 4 15 33 -72 41 -120z m-2041 -137 c57 -28 102 -42 290 -93 19 -6 65
-34 102 -64 84 -68 169 -110 278 -137 70 -18 103 -21 195 -16 176 8 298 55
439 170 93 76 86 47 -21 -90 -102 -132 -216 -213 -378 -270 -74 -25 -92 -27
-230 -27 -144 -1 -154 1 -245 32 -221 77 -401 246 -484 454 -14 36 -26 69 -26
73 0 8 -4 9 80 -32z"/>
</g>
</svg>
