<?xml version="1.0" standalone="no"?>
<!DOCTYPE svg PUBLIC "-//W3C//DTD SVG 20010904//EN" "http://www.w3.org/TR/2001/REC-SVG-20010904/DTD/svg10.dtd">
<svg version="1.0" xmlns="http://www.w3.org/2000/svg"
    width="182.000000pt" height="281.000000pt" viewBox="0 0 182.000000 281.000000"
    preserveAspectRatio="xMidYMid meet">

    <g transform="translate(0.000000,281.000000) scale(0.100000,-0.100000)"
        fill="#3a4158" stroke="none">
        <path
            d="M1286 2659 c-339 -73 -569 -266 -751 -629 -109 -218 -183 -423 -244
-680 -51 -216 -73 -375 -89 -657 -9 -144 -3 -128 -107 -272 -42 -57 -35 -99
37 -226 l63 -110 3 59 c2 32 -1 71 -7 87 -10 30 -8 119 4 138 13 21 44 12 51
-15 7 -26 1 -121 -12 -218 -5 -32 -4 -47 3 -43 21 13 125 211 130 246 3 24 -2
45 -14 62 -10 15 -40 58 -67 97 l-49 72 7 97 c9 118 32 348 46 441 33 232 144
584 237 751 97 173 259 366 379 451 40 28 31 17 -46 -60 -124 -124 -209 -246
-291 -422 -102 -217 -178 -467 -224 -733 -8 -44 -17 -97 -21 -119 l-7 -38 64
7 c133 14 291 54 399 99 l75 31 -160 12 c-88 7 -185 15 -215 20 l-55 7 50 8
c28 4 84 10 125 13 127 10 216 24 266 41 46 15 144 69 190 103 43 33 132 142
161 198 52 99 110 283 147 469 20 98 41 192 46 208 6 16 8 31 6 33 -4 4 -109
-17 -206 -42 -30 -7 -77 -16 -104 -20 -71 -10 -56 14 30 45 133 50 212 99 313
197 53 50 93 95 89 98 -4 4 -54 -3 -113 -14 -120 -24 -145 -25 -145 -11 0 11
43 31 155 69 101 35 177 72 240 118 49 36 49 37 25 44 -56 16 -323 8 -414 -12z" />
    </g>
</svg>